<mxfile host="app.diagrams.net" modified="2022-10-22T09:57:32.479Z" agent="5.0 (Windows NT 10.0; Win64; x64) AppleWebKit/537.36 (KHTML, like Gecko) Chrome/106.0.0.0 Safari/537.36 Edg/106.0.1370.47" etag="Cm935dym6n1XPqLlZg4B" version="20.5.0" type="github">
  <diagram id="QXWpwdzuWoMwUjgejO0K" name="Page-1">
    <mxGraphModel dx="593" dy="313" grid="1" gridSize="10" guides="1" tooltips="1" connect="1" arrows="1" fold="1" page="1" pageScale="1" pageWidth="1000" pageHeight="1000" math="0" shadow="0">
      <root>
        <mxCell id="0" />
        <mxCell id="1" parent="0" />
        <mxCell id="4xmhR8KFYXBQtZKEE0PV-23" value="客户端" style="shape=umlLifeline;perimeter=lifelinePerimeter;whiteSpace=wrap;html=1;container=1;collapsible=0;recursiveResize=0;outlineConnect=0;" vertex="1" parent="1">
          <mxGeometry x="80" y="40" width="90" height="690" as="geometry" />
        </mxCell>
        <mxCell id="4xmhR8KFYXBQtZKEE0PV-29" value="" style="html=1;points=[];perimeter=orthogonalPerimeter;" vertex="1" parent="4xmhR8KFYXBQtZKEE0PV-23">
          <mxGeometry x="40" y="60" width="10" height="80" as="geometry" />
        </mxCell>
        <mxCell id="4xmhR8KFYXBQtZKEE0PV-60" value="" style="html=1;points=[];perimeter=orthogonalPerimeter;" vertex="1" parent="4xmhR8KFYXBQtZKEE0PV-23">
          <mxGeometry x="40" y="640" width="10" height="40" as="geometry" />
        </mxCell>
        <mxCell id="4xmhR8KFYXBQtZKEE0PV-26" value="业务服务端" style="shape=umlLifeline;perimeter=lifelinePerimeter;whiteSpace=wrap;html=1;container=1;collapsible=0;recursiveResize=0;outlineConnect=0;" vertex="1" parent="1">
          <mxGeometry x="240" y="40" width="90" height="690" as="geometry" />
        </mxCell>
        <mxCell id="4xmhR8KFYXBQtZKEE0PV-33" value="" style="html=1;points=[];perimeter=orthogonalPerimeter;" vertex="1" parent="4xmhR8KFYXBQtZKEE0PV-26">
          <mxGeometry x="40" y="60" width="10" height="620" as="geometry" />
        </mxCell>
        <mxCell id="4xmhR8KFYXBQtZKEE0PV-43" value="写入临时文件" style="html=1;verticalAlign=bottom;endArrow=block;rounded=0;edgeStyle=orthogonalEdgeStyle;" edge="1" parent="4xmhR8KFYXBQtZKEE0PV-26" source="4xmhR8KFYXBQtZKEE0PV-33" target="4xmhR8KFYXBQtZKEE0PV-33">
          <mxGeometry x="0.125" y="40" relative="1" as="geometry">
            <mxPoint x="60.000000000000114" y="170" as="sourcePoint" />
            <mxPoint x="110" y="290" as="targetPoint" />
            <Array as="points">
              <mxPoint x="110" y="240" />
              <mxPoint x="110" y="280" />
            </Array>
            <mxPoint as="offset" />
          </mxGeometry>
        </mxCell>
        <mxCell id="4xmhR8KFYXBQtZKEE0PV-58" value="获取下载路径" style="html=1;verticalAlign=bottom;endArrow=block;entryX=0;entryY=0;rounded=0;" edge="1" parent="4xmhR8KFYXBQtZKEE0PV-26">
          <mxGeometry relative="1" as="geometry">
            <mxPoint x="-110" y="640" as="sourcePoint" />
            <mxPoint x="40" y="640" as="targetPoint" />
          </mxGeometry>
        </mxCell>
        <mxCell id="4xmhR8KFYXBQtZKEE0PV-59" value="返回下载路径" style="html=1;verticalAlign=bottom;endArrow=open;dashed=1;endSize=8;exitX=0;exitY=0.95;rounded=0;" edge="1" parent="4xmhR8KFYXBQtZKEE0PV-26">
          <mxGeometry relative="1" as="geometry">
            <mxPoint x="-110" y="678" as="targetPoint" />
            <mxPoint x="40" y="678" as="sourcePoint" />
          </mxGeometry>
        </mxCell>
        <mxCell id="4xmhR8KFYXBQtZKEE0PV-27" value="数据库" style="shape=umlLifeline;perimeter=lifelinePerimeter;whiteSpace=wrap;html=1;container=1;collapsible=0;recursiveResize=0;outlineConnect=0;" vertex="1" parent="1">
          <mxGeometry x="400" y="40" width="90" height="690" as="geometry" />
        </mxCell>
        <mxCell id="4xmhR8KFYXBQtZKEE0PV-36" value="" style="html=1;points=[];perimeter=orthogonalPerimeter;" vertex="1" parent="4xmhR8KFYXBQtZKEE0PV-27">
          <mxGeometry x="40" y="80" width="10" height="40" as="geometry" />
        </mxCell>
        <mxCell id="4xmhR8KFYXBQtZKEE0PV-39" value="" style="html=1;points=[];perimeter=orthogonalPerimeter;" vertex="1" parent="4xmhR8KFYXBQtZKEE0PV-27">
          <mxGeometry x="40" y="160" width="10" height="40" as="geometry" />
        </mxCell>
        <mxCell id="4xmhR8KFYXBQtZKEE0PV-53" value="" style="html=1;points=[];perimeter=orthogonalPerimeter;" vertex="1" parent="4xmhR8KFYXBQtZKEE0PV-27">
          <mxGeometry x="40" y="560" width="10" height="40" as="geometry" />
        </mxCell>
        <mxCell id="4xmhR8KFYXBQtZKEE0PV-54" value="回写下载路径" style="html=1;verticalAlign=bottom;endArrow=block;entryX=0;entryY=0;rounded=0;" edge="1" parent="4xmhR8KFYXBQtZKEE0PV-27" target="4xmhR8KFYXBQtZKEE0PV-53">
          <mxGeometry relative="1" as="geometry">
            <mxPoint x="-110" y="560" as="sourcePoint" />
          </mxGeometry>
        </mxCell>
        <mxCell id="4xmhR8KFYXBQtZKEE0PV-28" value="文件服务端" style="shape=umlLifeline;perimeter=lifelinePerimeter;whiteSpace=wrap;html=1;container=1;collapsible=0;recursiveResize=0;outlineConnect=0;" vertex="1" parent="1">
          <mxGeometry x="560" y="40" width="90" height="690" as="geometry" />
        </mxCell>
        <mxCell id="4xmhR8KFYXBQtZKEE0PV-46" value="" style="html=1;points=[];perimeter=orthogonalPerimeter;" vertex="1" parent="4xmhR8KFYXBQtZKEE0PV-28">
          <mxGeometry x="40" y="320" width="10" height="40" as="geometry" />
        </mxCell>
        <mxCell id="4xmhR8KFYXBQtZKEE0PV-50" value="" style="html=1;points=[];perimeter=orthogonalPerimeter;" vertex="1" parent="4xmhR8KFYXBQtZKEE0PV-28">
          <mxGeometry x="40" y="400" width="10" height="40" as="geometry" />
        </mxCell>
        <mxCell id="4xmhR8KFYXBQtZKEE0PV-51" value="生成下载路径" style="html=1;verticalAlign=bottom;endArrow=block;entryX=0;entryY=0;rounded=0;" edge="1" parent="4xmhR8KFYXBQtZKEE0PV-28" target="4xmhR8KFYXBQtZKEE0PV-50">
          <mxGeometry relative="1" as="geometry">
            <mxPoint x="-270" y="400" as="sourcePoint" />
          </mxGeometry>
        </mxCell>
        <mxCell id="4xmhR8KFYXBQtZKEE0PV-52" value="返回下载路径" style="html=1;verticalAlign=bottom;endArrow=open;dashed=1;endSize=8;exitX=0;exitY=0.95;rounded=0;" edge="1" parent="4xmhR8KFYXBQtZKEE0PV-28" source="4xmhR8KFYXBQtZKEE0PV-50">
          <mxGeometry relative="1" as="geometry">
            <mxPoint x="-270" y="438" as="targetPoint" />
          </mxGeometry>
        </mxCell>
        <mxCell id="4xmhR8KFYXBQtZKEE0PV-34" value="发起请求" style="html=1;verticalAlign=bottom;endArrow=block;entryX=0;entryY=0;rounded=0;" edge="1" target="4xmhR8KFYXBQtZKEE0PV-33" parent="1" source="4xmhR8KFYXBQtZKEE0PV-23">
          <mxGeometry relative="1" as="geometry">
            <mxPoint x="210" y="90" as="sourcePoint" />
          </mxGeometry>
        </mxCell>
        <mxCell id="4xmhR8KFYXBQtZKEE0PV-35" value="返回记录 id" style="html=1;verticalAlign=bottom;endArrow=open;dashed=1;endSize=8;rounded=0;" edge="1" source="4xmhR8KFYXBQtZKEE0PV-33" parent="1" target="4xmhR8KFYXBQtZKEE0PV-29">
          <mxGeometry relative="1" as="geometry">
            <mxPoint x="210" y="166" as="targetPoint" />
          </mxGeometry>
        </mxCell>
        <mxCell id="4xmhR8KFYXBQtZKEE0PV-37" value="记录导出" style="html=1;verticalAlign=bottom;endArrow=block;entryX=0;entryY=0;rounded=0;" edge="1" target="4xmhR8KFYXBQtZKEE0PV-36" parent="1" source="4xmhR8KFYXBQtZKEE0PV-33">
          <mxGeometry relative="1" as="geometry">
            <mxPoint x="370" y="120" as="sourcePoint" />
          </mxGeometry>
        </mxCell>
        <mxCell id="4xmhR8KFYXBQtZKEE0PV-38" value="返回记录 id" style="html=1;verticalAlign=bottom;endArrow=open;dashed=1;endSize=8;exitX=0;exitY=0.95;rounded=0;" edge="1" source="4xmhR8KFYXBQtZKEE0PV-36" parent="1" target="4xmhR8KFYXBQtZKEE0PV-33">
          <mxGeometry relative="1" as="geometry">
            <mxPoint x="370" y="196" as="targetPoint" />
          </mxGeometry>
        </mxCell>
        <mxCell id="4xmhR8KFYXBQtZKEE0PV-40" value="分页查询" style="html=1;verticalAlign=bottom;endArrow=block;entryX=0;entryY=0;rounded=0;" edge="1" target="4xmhR8KFYXBQtZKEE0PV-39" parent="1" source="4xmhR8KFYXBQtZKEE0PV-33">
          <mxGeometry relative="1" as="geometry">
            <mxPoint x="530" y="200" as="sourcePoint" />
          </mxGeometry>
        </mxCell>
        <mxCell id="4xmhR8KFYXBQtZKEE0PV-41" value="返回数据" style="html=1;verticalAlign=bottom;endArrow=open;dashed=1;endSize=8;exitX=0;exitY=0.95;rounded=0;" edge="1" source="4xmhR8KFYXBQtZKEE0PV-39" parent="1" target="4xmhR8KFYXBQtZKEE0PV-33">
          <mxGeometry relative="1" as="geometry">
            <mxPoint x="530" y="276" as="targetPoint" />
          </mxGeometry>
        </mxCell>
        <mxCell id="4xmhR8KFYXBQtZKEE0PV-47" value="上传七牛云" style="html=1;verticalAlign=bottom;endArrow=block;entryX=0;entryY=0;rounded=0;" edge="1" target="4xmhR8KFYXBQtZKEE0PV-46" parent="1" source="4xmhR8KFYXBQtZKEE0PV-33">
          <mxGeometry relative="1" as="geometry">
            <mxPoint x="530" y="360" as="sourcePoint" />
          </mxGeometry>
        </mxCell>
        <mxCell id="4xmhR8KFYXBQtZKEE0PV-48" value="返回结果" style="html=1;verticalAlign=bottom;endArrow=open;dashed=1;endSize=8;exitX=0;exitY=0.95;rounded=0;" edge="1" source="4xmhR8KFYXBQtZKEE0PV-46" parent="1" target="4xmhR8KFYXBQtZKEE0PV-33">
          <mxGeometry relative="1" as="geometry">
            <mxPoint x="530" y="436" as="targetPoint" />
          </mxGeometry>
        </mxCell>
        <mxCell id="4xmhR8KFYXBQtZKEE0PV-55" value="返回结果" style="html=1;verticalAlign=bottom;endArrow=open;dashed=1;endSize=8;exitX=0;exitY=0.95;rounded=0;" edge="1" parent="1" source="4xmhR8KFYXBQtZKEE0PV-53">
          <mxGeometry relative="1" as="geometry">
            <mxPoint x="290" y="638" as="targetPoint" />
          </mxGeometry>
        </mxCell>
        <mxCell id="4xmhR8KFYXBQtZKEE0PV-56" value="删除临时文件" style="html=1;verticalAlign=bottom;endArrow=block;rounded=0;edgeStyle=orthogonalEdgeStyle;" edge="1" parent="1">
          <mxGeometry x="0.125" y="40" relative="1" as="geometry">
            <mxPoint x="290" y="520.0000000000001" as="sourcePoint" />
            <mxPoint x="290" y="560.0000000000001" as="targetPoint" />
            <Array as="points">
              <mxPoint x="350" y="520" />
              <mxPoint x="350" y="560" />
            </Array>
            <mxPoint as="offset" />
          </mxGeometry>
        </mxCell>
      </root>
    </mxGraphModel>
  </diagram>
</mxfile>
